<?xml version="1.0" encoding="UTF-8" standalone="no"?>
<!DOCTYPE svg PUBLIC "-//W3C//DTD SVG 1.1//EN"
 "http://www.w3.org/Graphics/SVG/1.1/DTD/svg11.dtd">
<!-- Generated by graphviz version 2.43.0 (0)
 -->
<!-- Title: interval_deps Pages: 1 -->
<svg width="1088pt" height="652pt"
 viewBox="0.00 0.00 1087.73 652.00" xmlns="http://www.w3.org/2000/svg" xmlns:xlink="http://www.w3.org/1999/xlink">
<g id="graph0" class="graph" transform="scale(1 1) rotate(0) translate(4 648)">
<title>interval_deps</title>
<polygon fill="white" stroke="transparent" points="-4,4 -4,-648 1083.73,-648 1083.73,4 -4,4"/>
<!-- fextraction.Fixes -->
<g id="node1" class="node">
<title>fextraction.Fixes</title>
<g id="a_node1"><a xlink:href="https://SSProve.github.io/ssprove/fextraction.Fixes.html" xlink:title="fextraction.Fixes">
<path fill="#ccebc5" stroke="black" d="M213.76,-323.51C213.76,-323.51 213.76,-328.49 213.76,-328.49 213.76,-330.97 211.32,-333.91 208.88,-334.37 208.88,-334.37 162.26,-343.09 162.26,-343.09 159.82,-343.54 154.89,-344 152.4,-344 152.4,-344 82.6,-344 82.6,-344 80.11,-344 75.18,-343.54 72.74,-343.09 72.74,-343.09 26.12,-334.37 26.12,-334.37 23.68,-333.91 21.24,-330.97 21.24,-328.49 21.24,-328.49 21.24,-323.51 21.24,-323.51 21.24,-321.03 23.68,-318.09 26.12,-317.63 26.12,-317.63 72.74,-308.91 72.74,-308.91 75.18,-308.46 80.11,-308 82.6,-308 82.6,-308 152.4,-308 152.4,-308 154.89,-308 159.82,-308.46 162.26,-308.91 162.26,-308.91 208.88,-317.63 208.88,-317.63 211.32,-318.09 213.76,-321.03 213.76,-323.51"/>
<path fill="none" stroke="black" d="M217.76,-322.41C217.76,-322.41 217.76,-329.59 217.76,-329.59 217.76,-333.19 214.23,-337.44 210.69,-338.1 210.69,-338.1 164.81,-346.68 164.81,-346.68 161.27,-347.34 154.15,-348 150.56,-348 150.56,-348 84.44,-348 84.44,-348 80.85,-348 73.73,-347.34 70.19,-346.68 70.19,-346.68 24.31,-338.1 24.31,-338.1 20.77,-337.44 17.24,-333.19 17.24,-329.59 17.24,-329.59 17.24,-322.41 17.24,-322.41 17.24,-318.81 20.77,-314.56 24.31,-313.9 24.31,-313.9 70.19,-305.32 70.19,-305.32 73.73,-304.66 80.85,-304 84.44,-304 84.44,-304 150.56,-304 150.56,-304 154.15,-304 161.27,-304.66 164.81,-305.32 164.81,-305.32 210.69,-313.9 210.69,-313.9 214.23,-314.56 217.76,-318.81 217.76,-322.41"/>
<text text-anchor="middle" x="117.5" y="-322.3" font-family="Times,serif" font-size="14.00">fextraction.Fixes</text>
</a>
</g>
</g>
<!-- fextraction.Bertie_Tls13utils -->
<g id="node2" class="node">
<title>fextraction.Bertie_Tls13utils</title>
<g id="a_node2"><a xlink:href="https://SSProve.github.io/ssprove/fextraction.Bertie_Tls13utils.html" xlink:title="fextraction.Bertie_Tls13utils">
<path fill="#ccebc5" stroke="black" d="M216,-420C216,-420 19,-420 19,-420 13,-420 7,-414 7,-408 7,-408 7,-396 7,-396 7,-390 13,-384 19,-384 19,-384 216,-384 216,-384 222,-384 228,-390 228,-396 228,-396 228,-408 228,-408 228,-414 222,-420 216,-420"/>
<text text-anchor="middle" x="117.5" y="-398.3" font-family="Times,serif" font-size="14.00">fextraction.Bertie_Tls13utils</text>
</a>
</g>
</g>
<!-- fextraction.Bertie_Tls13utils&#45;&gt;fextraction.Fixes -->
<g id="edge1" class="edge">
<title>fextraction.Bertie_Tls13utils&#45;&gt;fextraction.Fixes</title>
<path fill="none" stroke="black" d="M117.5,-383.84C117.5,-376.16 117.5,-366.88 117.5,-358.05"/>
<polygon fill="black" stroke="black" points="121,-358.03 117.5,-348.03 114,-358.03 121,-358.03"/>
</g>
<!-- fextraction.Bertie_Tls13crypto -->
<g id="node3" class="node">
<title>fextraction.Bertie_Tls13crypto</title>
<g id="a_node3"><a xlink:href="https://SSProve.github.io/ssprove/fextraction.Bertie_Tls13crypto.html" xlink:title="fextraction.Bertie_Tls13crypto">
<path fill="#ccebc5" stroke="black" d="M223,-496C223,-496 12,-496 12,-496 6,-496 0,-490 0,-484 0,-484 0,-472 0,-472 0,-466 6,-460 12,-460 12,-460 223,-460 223,-460 229,-460 235,-466 235,-472 235,-472 235,-484 235,-484 235,-490 229,-496 223,-496"/>
<text text-anchor="middle" x="117.5" y="-474.3" font-family="Times,serif" font-size="14.00">fextraction.Bertie_Tls13crypto</text>
</a>
</g>
</g>
<!-- fextraction.Bertie_Tls13crypto&#45;&gt;fextraction.Bertie_Tls13utils -->
<g id="edge2" class="edge">
<title>fextraction.Bertie_Tls13crypto&#45;&gt;fextraction.Bertie_Tls13utils</title>
<path fill="none" stroke="black" d="M117.5,-459.84C117.5,-451.06 117.5,-440.16 117.5,-430.27"/>
<polygon fill="black" stroke="black" points="121,-430.07 117.5,-420.07 114,-430.07 121,-430.07"/>
</g>
<!-- fextraction.Bertie_Tls13formats -->
<g id="node4" class="node">
<title>fextraction.Bertie_Tls13formats</title>
<g id="a_node4"><a xlink:href="https://SSProve.github.io/ssprove/fextraction.Bertie_Tls13formats.html" xlink:title="fextraction.Bertie_Tls13formats">
<path fill="#ccebc5" stroke="black" d="M601.71,-475.51C601.71,-475.51 601.71,-480.49 601.71,-480.49 601.71,-482.97 599.24,-485.71 596.77,-485.97 596.77,-485.97 505.78,-495.48 505.78,-495.48 503.31,-495.74 498.35,-496 495.86,-496 495.86,-496 363.14,-496 363.14,-496 360.65,-496 355.69,-495.74 353.22,-495.48 353.22,-495.48 262.23,-485.97 262.23,-485.97 259.76,-485.71 257.29,-482.97 257.29,-480.49 257.29,-480.49 257.29,-475.51 257.29,-475.51 257.29,-473.03 259.76,-470.29 262.23,-470.03 262.23,-470.03 353.22,-460.52 353.22,-460.52 355.69,-460.26 360.65,-460 363.14,-460 363.14,-460 495.86,-460 495.86,-460 498.35,-460 503.31,-460.26 505.78,-460.52 505.78,-460.52 596.77,-470.03 596.77,-470.03 599.24,-470.29 601.71,-473.03 601.71,-475.51"/>
<path fill="none" stroke="black" d="M605.71,-474.31C605.71,-474.31 605.71,-481.69 605.71,-481.69 605.71,-485.37 602.04,-489.44 598.38,-489.83 598.38,-489.83 508.38,-499.23 508.38,-499.23 504.71,-499.62 497.36,-500 493.67,-500 493.67,-500 365.33,-500 365.33,-500 361.64,-500 354.29,-499.62 350.62,-499.23 350.62,-499.23 260.62,-489.83 260.62,-489.83 256.96,-489.44 253.29,-485.37 253.29,-481.69 253.29,-481.69 253.29,-474.31 253.29,-474.31 253.29,-470.63 256.96,-466.56 260.62,-466.17 260.62,-466.17 350.62,-456.77 350.62,-456.77 354.29,-456.38 361.64,-456 365.33,-456 365.33,-456 493.67,-456 493.67,-456 497.36,-456 504.71,-456.38 508.38,-456.77 508.38,-456.77 598.38,-466.17 598.38,-466.17 602.04,-466.56 605.71,-470.63 605.71,-474.31"/>
<text text-anchor="middle" x="429.5" y="-474.3" font-family="Times,serif" font-size="14.00">fextraction.Bertie_Tls13formats</text>
</a>
</g>
</g>
<!-- fextraction.Bertie_Tls13keyscheduler_Key_schedule -->
<g id="node5" class="node">
<title>fextraction.Bertie_Tls13keyscheduler_Key_schedule</title>
<g id="a_node5"><a xlink:href="https://SSProve.github.io/ssprove/fextraction.Bertie_Tls13keyscheduler_Key_schedule.html" xlink:title="fextraction.Bertie_Tls13keyscheduler_Key_schedule">
<path fill="#ccebc5" stroke="black" d="M534.5,-572C534.5,-572 172.5,-572 172.5,-572 166.5,-572 160.5,-566 160.5,-560 160.5,-560 160.5,-548 160.5,-548 160.5,-542 166.5,-536 172.5,-536 172.5,-536 534.5,-536 534.5,-536 540.5,-536 546.5,-542 546.5,-548 546.5,-548 546.5,-560 546.5,-560 546.5,-566 540.5,-572 534.5,-572"/>
<text text-anchor="middle" x="353.5" y="-550.3" font-family="Times,serif" font-size="14.00">fextraction.Bertie_Tls13keyscheduler_Key_schedule</text>
</a>
</g>
</g>
<!-- fextraction.Bertie_Tls13keyscheduler_Key_schedule&#45;&gt;fextraction.Bertie_Tls13crypto -->
<g id="edge3" class="edge">
<title>fextraction.Bertie_Tls13keyscheduler_Key_schedule&#45;&gt;fextraction.Bertie_Tls13crypto</title>
<path fill="none" stroke="black" d="M299.06,-535.93C264.07,-524.96 218.46,-510.66 181.7,-499.13"/>
<polygon fill="black" stroke="black" points="182.66,-495.76 172.07,-496.11 180.57,-502.44 182.66,-495.76"/>
</g>
<!-- fextraction.Bertie_Tls13keyscheduler_Key_schedule&#45;&gt;fextraction.Bertie_Tls13formats -->
<g id="edge4" class="edge">
<title>fextraction.Bertie_Tls13keyscheduler_Key_schedule&#45;&gt;fextraction.Bertie_Tls13formats</title>
<path fill="none" stroke="black" d="M371.13,-535.84C379.86,-527.33 390.64,-516.84 400.54,-507.2"/>
<polygon fill="black" stroke="black" points="403.18,-509.52 407.9,-500.03 398.29,-504.5 403.18,-509.52"/>
</g>
<!-- handwritten.ssp_helper -->
<g id="node6" class="node">
<title>handwritten.ssp_helper</title>
<g id="a_node6"><a xlink:href="https://SSProve.github.io/ssprove/handwritten.ssp_helper.html" xlink:title="handwritten.ssp_helper">
<path fill="#b3cde3" stroke="black" d="M851.79,-99.51C851.79,-99.51 851.79,-104.49 851.79,-104.49 851.79,-106.97 849.33,-109.8 846.86,-110.14 846.86,-110.14 780.39,-119.32 780.39,-119.32 777.93,-119.66 772.98,-120 770.5,-120 770.5,-120 672.5,-120 672.5,-120 670.02,-120 665.07,-119.66 662.61,-119.32 662.61,-119.32 596.14,-110.14 596.14,-110.14 593.67,-109.8 591.21,-106.97 591.21,-104.49 591.21,-104.49 591.21,-99.51 591.21,-99.51 591.21,-97.03 593.67,-94.2 596.14,-93.86 596.14,-93.86 662.61,-84.68 662.61,-84.68 665.07,-84.34 670.02,-84 672.5,-84 672.5,-84 770.5,-84 770.5,-84 772.98,-84 777.93,-84.34 780.39,-84.68 780.39,-84.68 846.86,-93.86 846.86,-93.86 849.33,-94.2 851.79,-97.03 851.79,-99.51"/>
<path fill="none" stroke="black" d="M855.79,-98.35C855.79,-98.35 855.79,-105.65 855.79,-105.65 855.79,-109.29 852.18,-113.44 848.57,-113.94 848.57,-113.94 782.97,-123 782.97,-123 779.36,-123.5 772.1,-124 768.45,-124 768.45,-124 674.55,-124 674.55,-124 670.9,-124 663.64,-123.5 660.03,-123 660.03,-123 594.43,-113.94 594.43,-113.94 590.82,-113.44 587.21,-109.29 587.21,-105.65 587.21,-105.65 587.21,-98.35 587.21,-98.35 587.21,-94.71 590.82,-90.56 594.43,-90.06 594.43,-90.06 660.03,-81 660.03,-81 663.64,-80.5 670.9,-80 674.55,-80 674.55,-80 768.45,-80 768.45,-80 772.1,-80 779.36,-80.5 782.97,-81 782.97,-81 848.57,-90.06 848.57,-90.06 852.18,-90.56 855.79,-94.71 855.79,-98.35"/>
<text text-anchor="middle" x="721.5" y="-98.3" font-family="Times,serif" font-size="14.00">handwritten.ssp_helper</text>
</a>
</g>
</g>
<!-- handwritten.Types -->
<g id="node7" class="node">
<title>handwritten.Types</title>
<g id="a_node7"><a xlink:href="https://SSProve.github.io/ssprove/handwritten.Types.html" xlink:title="handwritten.Types">
<path fill="#b3cde3" stroke="black" d="M1075.95,-19.51C1075.95,-19.51 1075.95,-24.49 1075.95,-24.49 1075.95,-26.97 1073.5,-29.87 1071.05,-30.28 1071.05,-30.28 1018.49,-39.17 1018.49,-39.17 1016.04,-39.59 1011.11,-40 1008.62,-40 1008.62,-40 930.38,-40 930.38,-40 927.89,-40 922.96,-39.59 920.51,-39.17 920.51,-39.17 867.95,-30.28 867.95,-30.28 865.5,-29.87 863.05,-26.97 863.05,-24.49 863.05,-24.49 863.05,-19.51 863.05,-19.51 863.05,-17.03 865.5,-14.13 867.95,-13.72 867.95,-13.72 920.51,-4.83 920.51,-4.83 922.96,-4.41 927.89,-4 930.38,-4 930.38,-4 1008.62,-4 1008.62,-4 1011.11,-4 1016.04,-4.41 1018.49,-4.83 1018.49,-4.83 1071.05,-13.72 1071.05,-13.72 1073.5,-14.13 1075.95,-17.03 1075.95,-19.51"/>
<path fill="none" stroke="black" d="M1079.96,-18.39C1079.96,-18.39 1079.96,-25.61 1079.96,-25.61 1079.96,-29.22 1076.39,-33.44 1072.83,-34.04 1072.83,-34.04 1021.05,-42.8 1021.05,-42.8 1017.49,-43.4 1010.32,-44 1006.71,-44 1006.71,-44 932.29,-44 932.29,-44 928.68,-44 921.51,-43.4 917.95,-42.8 917.95,-42.8 866.17,-34.04 866.17,-34.04 862.61,-33.44 859.04,-29.22 859.04,-25.61 859.04,-25.61 859.04,-18.39 859.04,-18.39 859.04,-14.78 862.61,-10.56 866.17,-9.96 866.17,-9.96 917.95,-1.2 917.95,-1.2 921.51,-0.6 928.68,0 932.29,0 932.29,0 1006.71,0 1006.71,0 1010.32,0 1017.49,-0.6 1021.05,-1.2 1021.05,-1.2 1072.83,-9.96 1072.83,-9.96 1076.39,-10.56 1079.96,-14.78 1079.96,-18.39"/>
<text text-anchor="middle" x="969.5" y="-18.3" font-family="Times,serif" font-size="14.00">handwritten.Types</text>
</a>
</g>
</g>
<!-- handwritten.ExtraTypes -->
<g id="node8" class="node">
<title>handwritten.ExtraTypes</title>
<g id="a_node8"><a xlink:href="https://SSProve.github.io/ssprove/handwritten.ExtraTypes.html" xlink:title="handwritten.ExtraTypes">
<path fill="#b3cde3" stroke="black" d="M1053,-120C1053,-120 886,-120 886,-120 880,-120 874,-114 874,-108 874,-108 874,-96 874,-96 874,-90 880,-84 886,-84 886,-84 1053,-84 1053,-84 1059,-84 1065,-90 1065,-96 1065,-96 1065,-108 1065,-108 1065,-114 1059,-120 1053,-120"/>
<text text-anchor="middle" x="969.5" y="-98.3" font-family="Times,serif" font-size="14.00">handwritten.ExtraTypes</text>
</a>
</g>
</g>
<!-- handwritten.ExtraTypes&#45;&gt;handwritten.Types -->
<g id="edge5" class="edge">
<title>handwritten.ExtraTypes&#45;&gt;handwritten.Types</title>
<path fill="none" stroke="black" d="M969.5,-83.69C969.5,-75.03 969.5,-64.28 969.5,-54.24"/>
<polygon fill="black" stroke="black" points="973,-54.15 969.5,-44.15 966,-54.15 973,-54.15"/>
</g>
<!-- handwritten.Utility -->
<g id="node9" class="node">
<title>handwritten.Utility</title>
<g id="a_node9"><a xlink:href="https://SSProve.github.io/ssprove/handwritten.Utility.html" xlink:title="handwritten.Utility">
<path fill="#b3cde3" stroke="black" d="M911,-196C911,-196 780,-196 780,-196 774,-196 768,-190 768,-184 768,-184 768,-172 768,-172 768,-166 774,-160 780,-160 780,-160 911,-160 911,-160 917,-160 923,-166 923,-172 923,-172 923,-184 923,-184 923,-190 917,-196 911,-196"/>
<text text-anchor="middle" x="845.5" y="-174.3" font-family="Times,serif" font-size="14.00">handwritten.Utility</text>
</a>
</g>
</g>
<!-- handwritten.Utility&#45;&gt;handwritten.ssp_helper -->
<g id="edge6" class="edge">
<title>handwritten.Utility&#45;&gt;handwritten.ssp_helper</title>
<path fill="none" stroke="black" d="M816.74,-159.84C801.51,-150.75 782.48,-139.39 765.44,-129.22"/>
<polygon fill="black" stroke="black" points="767.12,-126.15 756.74,-124.03 763.54,-132.16 767.12,-126.15"/>
</g>
<!-- handwritten.Utility&#45;&gt;handwritten.ExtraTypes -->
<g id="edge7" class="edge">
<title>handwritten.Utility&#45;&gt;handwritten.ExtraTypes</title>
<path fill="none" stroke="black" d="M874.26,-159.84C891.48,-149.56 913.55,-136.39 932.1,-125.32"/>
<polygon fill="black" stroke="black" points="934.1,-128.2 940.9,-120.07 930.52,-122.19 934.1,-128.2"/>
</g>
<!-- handwritten.Dependencies -->
<g id="node10" class="node">
<title>handwritten.Dependencies</title>
<g id="a_node10"><a xlink:href="https://SSProve.github.io/ssprove/handwritten.Dependencies.html" xlink:title="handwritten.Dependencies">
<path fill="#b3cde3" stroke="black" d="M938,-268C938,-268 753,-268 753,-268 747,-268 741,-262 741,-256 741,-256 741,-244 741,-244 741,-238 747,-232 753,-232 753,-232 938,-232 938,-232 944,-232 950,-238 950,-244 950,-244 950,-256 950,-256 950,-262 944,-268 938,-268"/>
<text text-anchor="middle" x="845.5" y="-246.3" font-family="Times,serif" font-size="14.00">handwritten.Dependencies</text>
</a>
</g>
</g>
<!-- handwritten.Dependencies&#45;&gt;handwritten.Utility -->
<g id="edge8" class="edge">
<title>handwritten.Dependencies&#45;&gt;handwritten.Utility</title>
<path fill="none" stroke="black" d="M845.5,-231.7C845.5,-223.98 845.5,-214.71 845.5,-206.11"/>
<polygon fill="black" stroke="black" points="849,-206.1 845.5,-196.1 842,-206.1 849,-206.1"/>
</g>
<!-- handwritten.BasePackages -->
<g id="node11" class="node">
<title>handwritten.BasePackages</title>
<g id="a_node11"><a xlink:href="https://SSProve.github.io/ssprove/handwritten.BasePackages.html" xlink:title="handwritten.BasePackages">
<path fill="#b3cde3" stroke="black" d="M938,-344C938,-344 753,-344 753,-344 747,-344 741,-338 741,-332 741,-332 741,-320 741,-320 741,-314 747,-308 753,-308 753,-308 938,-308 938,-308 944,-308 950,-314 950,-320 950,-320 950,-332 950,-332 950,-338 944,-344 938,-344"/>
<text text-anchor="middle" x="845.5" y="-322.3" font-family="Times,serif" font-size="14.00">handwritten.BasePackages</text>
</a>
</g>
</g>
<!-- handwritten.BasePackages&#45;&gt;handwritten.Dependencies -->
<g id="edge9" class="edge">
<title>handwritten.BasePackages&#45;&gt;handwritten.Dependencies</title>
<path fill="none" stroke="black" d="M845.5,-307.84C845.5,-299.06 845.5,-288.16 845.5,-278.27"/>
<polygon fill="black" stroke="black" points="849,-278.07 845.5,-268.07 842,-278.07 849,-278.07"/>
</g>
<!-- handwritten.KeyPackages -->
<g id="node12" class="node">
<title>handwritten.KeyPackages</title>
<g id="a_node12"><a xlink:href="https://SSProve.github.io/ssprove/handwritten.KeyPackages.html" xlink:title="handwritten.KeyPackages">
<path fill="#b3cde3" stroke="black" d="M831,-420C831,-420 654,-420 654,-420 648,-420 642,-414 642,-408 642,-408 642,-396 642,-396 642,-390 648,-384 654,-384 654,-384 831,-384 831,-384 837,-384 843,-390 843,-396 843,-396 843,-408 843,-408 843,-414 837,-420 831,-420"/>
<text text-anchor="middle" x="742.5" y="-398.3" font-family="Times,serif" font-size="14.00">handwritten.KeyPackages</text>
</a>
</g>
</g>
<!-- handwritten.KeyPackages&#45;&gt;handwritten.BasePackages -->
<g id="edge10" class="edge">
<title>handwritten.KeyPackages&#45;&gt;handwritten.BasePackages</title>
<path fill="none" stroke="black" d="M766.39,-383.84C780.43,-373.75 798.36,-360.87 813.59,-349.92"/>
<polygon fill="black" stroke="black" points="815.66,-352.75 821.74,-344.07 811.58,-347.06 815.66,-352.75"/>
</g>
<!-- handwritten.XTR_XPD -->
<g id="node13" class="node">
<title>handwritten.XTR_XPD</title>
<g id="a_node13"><a xlink:href="https://SSProve.github.io/ssprove/handwritten.XTR_XPD.html" xlink:title="handwritten.XTR_XPD">
<path fill="#b3cde3" stroke="black" d="M1025.5,-420C1025.5,-420 873.5,-420 873.5,-420 867.5,-420 861.5,-414 861.5,-408 861.5,-408 861.5,-396 861.5,-396 861.5,-390 867.5,-384 873.5,-384 873.5,-384 1025.5,-384 1025.5,-384 1031.5,-384 1037.5,-390 1037.5,-396 1037.5,-396 1037.5,-408 1037.5,-408 1037.5,-414 1031.5,-420 1025.5,-420"/>
<text text-anchor="middle" x="949.5" y="-398.3" font-family="Times,serif" font-size="14.00">handwritten.XTR_XPD</text>
</a>
</g>
</g>
<!-- handwritten.XTR_XPD&#45;&gt;handwritten.BasePackages -->
<g id="edge11" class="edge">
<title>handwritten.XTR_XPD&#45;&gt;handwritten.BasePackages</title>
<path fill="none" stroke="black" d="M925.38,-383.84C911.2,-373.75 893.1,-360.87 877.72,-349.92"/>
<polygon fill="black" stroke="black" points="879.67,-347.02 869.49,-344.07 875.61,-352.72 879.67,-347.02"/>
</g>
<!-- handwritten.Core -->
<g id="node14" class="node">
<title>handwritten.Core</title>
<g id="a_node14"><a xlink:href="https://SSProve.github.io/ssprove/handwritten.Core.html" xlink:title="handwritten.Core">
<path fill="#b3cde3" stroke="black" d="M906,-496C906,-496 787,-496 787,-496 781,-496 775,-490 775,-484 775,-484 775,-472 775,-472 775,-466 781,-460 787,-460 787,-460 906,-460 906,-460 912,-460 918,-466 918,-472 918,-472 918,-484 918,-484 918,-490 912,-496 906,-496"/>
<text text-anchor="middle" x="846.5" y="-474.3" font-family="Times,serif" font-size="14.00">handwritten.Core</text>
</a>
</g>
</g>
<!-- handwritten.Core&#45;&gt;handwritten.KeyPackages -->
<g id="edge12" class="edge">
<title>handwritten.Core&#45;&gt;handwritten.KeyPackages</title>
<path fill="none" stroke="black" d="M822.38,-459.84C808.2,-449.75 790.1,-436.87 774.72,-425.92"/>
<polygon fill="black" stroke="black" points="776.67,-423.02 766.49,-420.07 772.61,-428.72 776.67,-423.02"/>
</g>
<!-- handwritten.Core&#45;&gt;handwritten.XTR_XPD -->
<g id="edge13" class="edge">
<title>handwritten.Core&#45;&gt;handwritten.XTR_XPD</title>
<path fill="none" stroke="black" d="M870.39,-459.84C884.43,-449.75 902.36,-436.87 917.59,-425.92"/>
<polygon fill="black" stroke="black" points="919.66,-428.75 925.74,-420.07 915.58,-423.06 919.66,-428.75"/>
</g>
<!-- handwritten.KeySchedulePackages -->
<g id="node15" class="node">
<title>handwritten.KeySchedulePackages</title>
<g id="a_node15"><a xlink:href="https://SSProve.github.io/ssprove/handwritten.KeySchedulePackages.html" xlink:title="handwritten.KeySchedulePackages">
<path fill="#b3cde3" stroke="black" stroke-width="3" d="M1042.5,-572C1042.5,-572 800.5,-572 800.5,-572 794.5,-572 788.5,-566 788.5,-560 788.5,-560 788.5,-548 788.5,-548 788.5,-542 794.5,-536 800.5,-536 800.5,-536 1042.5,-536 1042.5,-536 1048.5,-536 1054.5,-542 1054.5,-548 1054.5,-548 1054.5,-560 1054.5,-560 1054.5,-566 1048.5,-572 1042.5,-572"/>
<text text-anchor="middle" x="921.5" y="-550.3" font-family="Times,serif" font-size="14.00">handwritten.KeySchedulePackages</text>
</a>
</g>
</g>
<!-- handwritten.KeySchedulePackages&#45;&gt;handwritten.Core -->
<g id="edge14" class="edge">
<title>handwritten.KeySchedulePackages&#45;&gt;handwritten.Core</title>
<path fill="none" stroke="black" d="M904.1,-535.84C894.26,-526.12 881.79,-513.82 870.97,-503.15"/>
<polygon fill="black" stroke="black" points="873.38,-500.6 863.8,-496.07 868.46,-505.58 873.38,-500.6"/>
</g>
<!-- handwritten.CoreTheorem -->
<g id="node16" class="node">
<title>handwritten.CoreTheorem</title>
<g id="a_node16"><a xlink:href="https://SSProve.github.io/ssprove/handwritten.CoreTheorem.html" xlink:title="handwritten.CoreTheorem">
<path fill="#b3cde3" stroke="black" d="M758.5,-572C758.5,-572 576.5,-572 576.5,-572 570.5,-572 564.5,-566 564.5,-560 564.5,-560 564.5,-548 564.5,-548 564.5,-542 570.5,-536 576.5,-536 576.5,-536 758.5,-536 758.5,-536 764.5,-536 770.5,-542 770.5,-548 770.5,-548 770.5,-560 770.5,-560 770.5,-566 764.5,-572 758.5,-572"/>
<text text-anchor="middle" x="667.5" y="-550.3" font-family="Times,serif" font-size="14.00">handwritten.CoreTheorem</text>
</a>
</g>
</g>
<!-- handwritten.CoreTheorem&#45;&gt;handwritten.Core -->
<g id="edge15" class="edge">
<title>handwritten.CoreTheorem&#45;&gt;handwritten.Core</title>
<path fill="none" stroke="black" d="M709.02,-535.84C734.88,-525.14 768.34,-511.31 795.78,-499.97"/>
<polygon fill="black" stroke="black" points="797.3,-503.13 805.21,-496.07 794.63,-496.66 797.3,-503.13"/>
</g>
<!-- handwritten.BertieResult -->
<g id="node17" class="node">
<title>handwritten.BertieResult</title>
<g id="a_node17"><a xlink:href="https://SSProve.github.io/ssprove/handwritten.BertieResult.html" xlink:title="handwritten.BertieResult">
<path fill="#b3cde3" stroke="black" stroke-width="3" d="M598,-644C598,-644 423,-644 423,-644 417,-644 411,-638 411,-632 411,-632 411,-620 411,-620 411,-614 417,-608 423,-608 423,-608 598,-608 598,-608 604,-608 610,-614 610,-620 610,-620 610,-632 610,-632 610,-638 604,-644 598,-644"/>
<text text-anchor="middle" x="510.5" y="-622.3" font-family="Times,serif" font-size="14.00">handwritten.BertieResult</text>
</a>
</g>
</g>
<!-- handwritten.BertieResult&#45;&gt;fextraction.Bertie_Tls13keyscheduler_Key_schedule -->
<g id="edge16" class="edge">
<title>handwritten.BertieResult&#45;&gt;fextraction.Bertie_Tls13keyscheduler_Key_schedule</title>
<path fill="none" stroke="black" d="M472.09,-607.88C450.63,-598.31 423.7,-586.3 400.93,-576.15"/>
<polygon fill="black" stroke="black" points="402.34,-572.94 391.78,-572.07 399.49,-579.34 402.34,-572.94"/>
</g>
<!-- handwritten.BertieResult&#45;&gt;handwritten.CoreTheorem -->
<g id="edge17" class="edge">
<title>handwritten.BertieResult&#45;&gt;handwritten.CoreTheorem</title>
<path fill="none" stroke="black" d="M548.91,-607.88C570.37,-598.31 597.3,-586.3 620.07,-576.15"/>
<polygon fill="black" stroke="black" points="621.51,-579.34 629.22,-572.07 618.66,-572.94 621.51,-579.34"/>
</g>
</g>
</svg>
