<?xml version="1.0" encoding="UTF-8" standalone="no"?>
<!DOCTYPE svg PUBLIC "-//W3C//DTD SVG 1.1//EN"
 "http://www.w3.org/Graphics/SVG/1.1/DTD/svg11.dtd">
<!-- Generated by graphviz version 2.43.0 (0)
 -->
<!-- Title: interval_deps Pages: 1 -->
<svg width="1368pt" height="876pt"
 viewBox="0.00 0.00 1368.01 876.00" xmlns="http://www.w3.org/2000/svg" xmlns:xlink="http://www.w3.org/1999/xlink">
<g id="graph0" class="graph" transform="scale(1 1) rotate(0) translate(4 872)">
<title>interval_deps</title>
<polygon fill="white" stroke="transparent" points="-4,4 -4,-872 1364.01,-872 1364.01,4 -4,4"/>
<!-- fextraction.Fixes -->
<g id="node1" class="node">
<title>fextraction.Fixes</title>
<g id="a_node1"><a xlink:href="https://SSProve.github.io/ssprove/fextraction.Fixes.html" xlink:title="fextraction.Fixes">
<path fill="#ccebc5" stroke="black" d="M213.76,-547.51C213.76,-547.51 213.76,-552.49 213.76,-552.49 213.76,-554.97 211.32,-557.91 208.88,-558.37 208.88,-558.37 162.26,-567.09 162.26,-567.09 159.82,-567.54 154.89,-568 152.4,-568 152.4,-568 82.6,-568 82.6,-568 80.11,-568 75.18,-567.54 72.74,-567.09 72.74,-567.09 26.12,-558.37 26.12,-558.37 23.68,-557.91 21.24,-554.97 21.24,-552.49 21.24,-552.49 21.24,-547.51 21.24,-547.51 21.24,-545.03 23.68,-542.09 26.12,-541.63 26.12,-541.63 72.74,-532.91 72.74,-532.91 75.18,-532.46 80.11,-532 82.6,-532 82.6,-532 152.4,-532 152.4,-532 154.89,-532 159.82,-532.46 162.26,-532.91 162.26,-532.91 208.88,-541.63 208.88,-541.63 211.32,-542.09 213.76,-545.03 213.76,-547.51"/>
<path fill="none" stroke="black" d="M217.76,-546.41C217.76,-546.41 217.76,-553.59 217.76,-553.59 217.76,-557.19 214.23,-561.44 210.69,-562.1 210.69,-562.1 164.81,-570.68 164.81,-570.68 161.27,-571.34 154.15,-572 150.56,-572 150.56,-572 84.44,-572 84.44,-572 80.85,-572 73.73,-571.34 70.19,-570.68 70.19,-570.68 24.31,-562.1 24.31,-562.1 20.77,-561.44 17.24,-557.19 17.24,-553.59 17.24,-553.59 17.24,-546.41 17.24,-546.41 17.24,-542.81 20.77,-538.56 24.31,-537.9 24.31,-537.9 70.19,-529.32 70.19,-529.32 73.73,-528.66 80.85,-528 84.44,-528 84.44,-528 150.56,-528 150.56,-528 154.15,-528 161.27,-528.66 164.81,-529.32 164.81,-529.32 210.69,-537.9 210.69,-537.9 214.23,-538.56 217.76,-542.81 217.76,-546.41"/>
<text text-anchor="middle" x="117.5" y="-546.3" font-family="Times,serif" font-size="14.00">fextraction.Fixes</text>
</a>
</g>
</g>
<!-- fextraction.Bertie_Tls13utils -->
<g id="node2" class="node">
<title>fextraction.Bertie_Tls13utils</title>
<g id="a_node2"><a xlink:href="https://SSProve.github.io/ssprove/fextraction.Bertie_Tls13utils.html" xlink:title="fextraction.Bertie_Tls13utils">
<path fill="#ccebc5" stroke="black" d="M216,-644C216,-644 19,-644 19,-644 13,-644 7,-638 7,-632 7,-632 7,-620 7,-620 7,-614 13,-608 19,-608 19,-608 216,-608 216,-608 222,-608 228,-614 228,-620 228,-620 228,-632 228,-632 228,-638 222,-644 216,-644"/>
<text text-anchor="middle" x="117.5" y="-622.3" font-family="Times,serif" font-size="14.00">fextraction.Bertie_Tls13utils</text>
</a>
</g>
</g>
<!-- fextraction.Bertie_Tls13utils&#45;&gt;fextraction.Fixes -->
<g id="edge1" class="edge">
<title>fextraction.Bertie_Tls13utils&#45;&gt;fextraction.Fixes</title>
<path fill="none" stroke="black" d="M117.5,-607.84C117.5,-600.16 117.5,-590.88 117.5,-582.05"/>
<polygon fill="black" stroke="black" points="121,-582.03 117.5,-572.03 114,-582.03 121,-582.03"/>
</g>
<!-- fextraction.Bertie_Tls13crypto -->
<g id="node3" class="node">
<title>fextraction.Bertie_Tls13crypto</title>
<g id="a_node3"><a xlink:href="https://SSProve.github.io/ssprove/fextraction.Bertie_Tls13crypto.html" xlink:title="fextraction.Bertie_Tls13crypto">
<path fill="#ccebc5" stroke="black" d="M223,-720C223,-720 12,-720 12,-720 6,-720 0,-714 0,-708 0,-708 0,-696 0,-696 0,-690 6,-684 12,-684 12,-684 223,-684 223,-684 229,-684 235,-690 235,-696 235,-696 235,-708 235,-708 235,-714 229,-720 223,-720"/>
<text text-anchor="middle" x="117.5" y="-698.3" font-family="Times,serif" font-size="14.00">fextraction.Bertie_Tls13crypto</text>
</a>
</g>
</g>
<!-- fextraction.Bertie_Tls13crypto&#45;&gt;fextraction.Bertie_Tls13utils -->
<g id="edge2" class="edge">
<title>fextraction.Bertie_Tls13crypto&#45;&gt;fextraction.Bertie_Tls13utils</title>
<path fill="none" stroke="black" d="M117.5,-683.84C117.5,-675.06 117.5,-664.16 117.5,-654.27"/>
<polygon fill="black" stroke="black" points="121,-654.07 117.5,-644.07 114,-654.07 121,-654.07"/>
</g>
<!-- fextraction.Bertie_Tls13formats -->
<g id="node4" class="node">
<title>fextraction.Bertie_Tls13formats</title>
<g id="a_node4"><a xlink:href="https://SSProve.github.io/ssprove/fextraction.Bertie_Tls13formats.html" xlink:title="fextraction.Bertie_Tls13formats">
<path fill="#ccebc5" stroke="black" d="M601.71,-699.51C601.71,-699.51 601.71,-704.49 601.71,-704.49 601.71,-706.97 599.24,-709.71 596.77,-709.97 596.77,-709.97 505.78,-719.48 505.78,-719.48 503.31,-719.74 498.35,-720 495.86,-720 495.86,-720 363.14,-720 363.14,-720 360.65,-720 355.69,-719.74 353.22,-719.48 353.22,-719.48 262.23,-709.97 262.23,-709.97 259.76,-709.71 257.29,-706.97 257.29,-704.49 257.29,-704.49 257.29,-699.51 257.29,-699.51 257.29,-697.03 259.76,-694.29 262.23,-694.03 262.23,-694.03 353.22,-684.52 353.22,-684.52 355.69,-684.26 360.65,-684 363.14,-684 363.14,-684 495.86,-684 495.86,-684 498.35,-684 503.31,-684.26 505.78,-684.52 505.78,-684.52 596.77,-694.03 596.77,-694.03 599.24,-694.29 601.71,-697.03 601.71,-699.51"/>
<path fill="none" stroke="black" d="M605.71,-698.31C605.71,-698.31 605.71,-705.69 605.71,-705.69 605.71,-709.37 602.04,-713.44 598.38,-713.83 598.38,-713.83 508.38,-723.23 508.38,-723.23 504.71,-723.62 497.36,-724 493.67,-724 493.67,-724 365.33,-724 365.33,-724 361.64,-724 354.29,-723.62 350.62,-723.23 350.62,-723.23 260.62,-713.83 260.62,-713.83 256.96,-713.44 253.29,-709.37 253.29,-705.69 253.29,-705.69 253.29,-698.31 253.29,-698.31 253.29,-694.63 256.96,-690.56 260.62,-690.17 260.62,-690.17 350.62,-680.77 350.62,-680.77 354.29,-680.38 361.64,-680 365.33,-680 365.33,-680 493.67,-680 493.67,-680 497.36,-680 504.71,-680.38 508.38,-680.77 508.38,-680.77 598.38,-690.17 598.38,-690.17 602.04,-690.56 605.71,-694.63 605.71,-698.31"/>
<text text-anchor="middle" x="429.5" y="-698.3" font-family="Times,serif" font-size="14.00">fextraction.Bertie_Tls13formats</text>
</a>
</g>
</g>
<!-- fextraction.Bertie_Tls13keyscheduler_Key_schedule -->
<g id="node5" class="node">
<title>fextraction.Bertie_Tls13keyscheduler_Key_schedule</title>
<g id="a_node5"><a xlink:href="https://SSProve.github.io/ssprove/fextraction.Bertie_Tls13keyscheduler_Key_schedule.html" xlink:title="fextraction.Bertie_Tls13keyscheduler_Key_schedule">
<path fill="#ccebc5" stroke="black" d="M586.5,-796C586.5,-796 224.5,-796 224.5,-796 218.5,-796 212.5,-790 212.5,-784 212.5,-784 212.5,-772 212.5,-772 212.5,-766 218.5,-760 224.5,-760 224.5,-760 586.5,-760 586.5,-760 592.5,-760 598.5,-766 598.5,-772 598.5,-772 598.5,-784 598.5,-784 598.5,-790 592.5,-796 586.5,-796"/>
<text text-anchor="middle" x="405.5" y="-774.3" font-family="Times,serif" font-size="14.00">fextraction.Bertie_Tls13keyscheduler_Key_schedule</text>
</a>
</g>
</g>
<!-- fextraction.Bertie_Tls13keyscheduler_Key_schedule&#45;&gt;fextraction.Bertie_Tls13crypto -->
<g id="edge3" class="edge">
<title>fextraction.Bertie_Tls13keyscheduler_Key_schedule&#45;&gt;fextraction.Bertie_Tls13crypto</title>
<path fill="none" stroke="black" d="M339.07,-759.93C295.73,-748.8 239.04,-734.23 193.85,-722.62"/>
<polygon fill="black" stroke="black" points="194.66,-719.21 184.1,-720.11 192.91,-725.99 194.66,-719.21"/>
</g>
<!-- fextraction.Bertie_Tls13keyscheduler_Key_schedule&#45;&gt;fextraction.Bertie_Tls13formats -->
<g id="edge4" class="edge">
<title>fextraction.Bertie_Tls13keyscheduler_Key_schedule&#45;&gt;fextraction.Bertie_Tls13formats</title>
<path fill="none" stroke="black" d="M411.07,-759.84C413.58,-752.08 416.63,-742.68 419.52,-733.77"/>
<polygon fill="black" stroke="black" points="422.92,-734.62 422.68,-724.03 416.26,-732.46 422.92,-734.62"/>
</g>
<!-- handwritten.ssp_helper -->
<g id="node6" class="node">
<title>handwritten.ssp_helper</title>
<g id="a_node6"><a xlink:href="https://SSProve.github.io/ssprove/handwritten.ssp_helper.html" xlink:title="handwritten.ssp_helper">
<path fill="#b3cde3" stroke="black" d="M704.79,-171.51C704.79,-171.51 704.79,-176.49 704.79,-176.49 704.79,-178.97 702.33,-181.8 699.86,-182.14 699.86,-182.14 633.39,-191.32 633.39,-191.32 630.93,-191.66 625.98,-192 623.5,-192 623.5,-192 525.5,-192 525.5,-192 523.02,-192 518.07,-191.66 515.61,-191.32 515.61,-191.32 449.14,-182.14 449.14,-182.14 446.67,-181.8 444.21,-178.97 444.21,-176.49 444.21,-176.49 444.21,-171.51 444.21,-171.51 444.21,-169.03 446.67,-166.2 449.14,-165.86 449.14,-165.86 515.61,-156.68 515.61,-156.68 518.07,-156.34 523.02,-156 525.5,-156 525.5,-156 623.5,-156 623.5,-156 625.98,-156 630.93,-156.34 633.39,-156.68 633.39,-156.68 699.86,-165.86 699.86,-165.86 702.33,-166.2 704.79,-169.03 704.79,-171.51"/>
<path fill="none" stroke="black" d="M708.79,-170.35C708.79,-170.35 708.79,-177.65 708.79,-177.65 708.79,-181.29 705.18,-185.44 701.57,-185.94 701.57,-185.94 635.97,-195 635.97,-195 632.36,-195.5 625.1,-196 621.45,-196 621.45,-196 527.55,-196 527.55,-196 523.9,-196 516.64,-195.5 513.03,-195 513.03,-195 447.43,-185.94 447.43,-185.94 443.82,-185.44 440.21,-181.29 440.21,-177.65 440.21,-177.65 440.21,-170.35 440.21,-170.35 440.21,-166.71 443.82,-162.56 447.43,-162.06 447.43,-162.06 513.03,-153 513.03,-153 516.64,-152.5 523.9,-152 527.55,-152 527.55,-152 621.45,-152 621.45,-152 625.1,-152 632.36,-152.5 635.97,-153 635.97,-153 701.57,-162.06 701.57,-162.06 705.18,-162.56 708.79,-166.71 708.79,-170.35"/>
<text text-anchor="middle" x="574.5" y="-170.3" font-family="Times,serif" font-size="14.00">handwritten.ssp_helper</text>
</a>
</g>
</g>
<!-- handwritten.Types -->
<g id="node7" class="node">
<title>handwritten.Types</title>
<g id="a_node7"><a xlink:href="https://SSProve.github.io/ssprove/handwritten.Types.html" xlink:title="handwritten.Types">
<path fill="#b3cde3" stroke="black" d="M731.95,-19.51C731.95,-19.51 731.95,-24.49 731.95,-24.49 731.95,-26.97 729.5,-29.87 727.05,-30.28 727.05,-30.28 674.49,-39.17 674.49,-39.17 672.04,-39.59 667.11,-40 664.62,-40 664.62,-40 586.38,-40 586.38,-40 583.89,-40 578.96,-39.59 576.51,-39.17 576.51,-39.17 523.95,-30.28 523.95,-30.28 521.5,-29.87 519.05,-26.97 519.05,-24.49 519.05,-24.49 519.05,-19.51 519.05,-19.51 519.05,-17.03 521.5,-14.13 523.95,-13.72 523.95,-13.72 576.51,-4.83 576.51,-4.83 578.96,-4.41 583.89,-4 586.38,-4 586.38,-4 664.62,-4 664.62,-4 667.11,-4 672.04,-4.41 674.49,-4.83 674.49,-4.83 727.05,-13.72 727.05,-13.72 729.5,-14.13 731.95,-17.03 731.95,-19.51"/>
<path fill="none" stroke="black" d="M735.96,-18.39C735.96,-18.39 735.96,-25.61 735.96,-25.61 735.96,-29.22 732.39,-33.44 728.83,-34.04 728.83,-34.04 677.05,-42.8 677.05,-42.8 673.49,-43.4 666.32,-44 662.71,-44 662.71,-44 588.29,-44 588.29,-44 584.68,-44 577.51,-43.4 573.95,-42.8 573.95,-42.8 522.17,-34.04 522.17,-34.04 518.61,-33.44 515.04,-29.22 515.04,-25.61 515.04,-25.61 515.04,-18.39 515.04,-18.39 515.04,-14.78 518.61,-10.56 522.17,-9.96 522.17,-9.96 573.95,-1.2 573.95,-1.2 577.51,-0.6 584.68,0 588.29,0 588.29,0 662.71,0 662.71,0 666.32,0 673.49,-0.6 677.05,-1.2 677.05,-1.2 728.83,-9.96 728.83,-9.96 732.39,-10.56 735.96,-14.78 735.96,-18.39"/>
<text text-anchor="middle" x="625.5" y="-18.3" font-family="Times,serif" font-size="14.00">handwritten.Types</text>
</a>
</g>
</g>
<!-- handwritten.ExtraTypes -->
<g id="node8" class="node">
<title>handwritten.ExtraTypes</title>
<g id="a_node8"><a xlink:href="https://SSProve.github.io/ssprove/handwritten.ExtraTypes.html" xlink:title="handwritten.ExtraTypes">
<path fill="#b3cde3" stroke="black" d="M709,-116C709,-116 542,-116 542,-116 536,-116 530,-110 530,-104 530,-104 530,-92 530,-92 530,-86 536,-80 542,-80 542,-80 709,-80 709,-80 715,-80 721,-86 721,-92 721,-92 721,-104 721,-104 721,-110 715,-116 709,-116"/>
<text text-anchor="middle" x="625.5" y="-94.3" font-family="Times,serif" font-size="14.00">handwritten.ExtraTypes</text>
</a>
</g>
</g>
<!-- handwritten.ExtraTypes&#45;&gt;handwritten.Types -->
<g id="edge5" class="edge">
<title>handwritten.ExtraTypes&#45;&gt;handwritten.Types</title>
<path fill="none" stroke="black" d="M625.5,-79.84C625.5,-72.16 625.5,-62.88 625.5,-54.05"/>
<polygon fill="black" stroke="black" points="629,-54.03 625.5,-44.03 622,-54.03 629,-54.03"/>
</g>
<!-- handwritten.Utility -->
<g id="node9" class="node">
<title>handwritten.Utility</title>
<g id="a_node9"><a xlink:href="https://SSProve.github.io/ssprove/handwritten.Utility.html" xlink:title="handwritten.Utility">
<path fill="#decbe4" stroke="black" d="M784,-420C784,-420 653,-420 653,-420 647,-420 641,-414 641,-408 641,-408 641,-396 641,-396 641,-390 647,-384 653,-384 653,-384 784,-384 784,-384 790,-384 796,-390 796,-396 796,-396 796,-408 796,-408 796,-414 790,-420 784,-420"/>
<text text-anchor="middle" x="718.5" y="-398.3" font-family="Times,serif" font-size="14.00">handwritten.Utility</text>
</a>
</g>
</g>
<!-- handwritten.Utility.key_store -->
<g id="node10" class="node">
<title>handwritten.Utility.key_store</title>
<g id="a_node10"><a xlink:href="https://SSProve.github.io/ssprove/handwritten.Utility.key_store.html" xlink:title="handwritten.Utility.key_store">
<path fill="#decbe4" stroke="black" d="M423,-268C423,-268 222,-268 222,-268 216,-268 210,-262 210,-256 210,-256 210,-244 210,-244 210,-238 216,-232 222,-232 222,-232 423,-232 423,-232 429,-232 435,-238 435,-244 435,-244 435,-256 435,-256 435,-262 429,-268 423,-268"/>
<text text-anchor="middle" x="322.5" y="-246.3" font-family="Times,serif" font-size="14.00">handwritten.Utility.key_store</text>
</a>
</g>
</g>
<!-- handwritten.Utility&#45;&gt;handwritten.Utility.key_store -->
<g id="edge6" class="edge">
<title>handwritten.Utility&#45;&gt;handwritten.Utility.key_store</title>
<path fill="none" stroke="black" d="M640.74,-396.22C583.66,-390.34 505.45,-377.23 442.5,-348 404.3,-330.26 367.76,-297.72 345.25,-275.25"/>
<polygon fill="black" stroke="black" points="347.68,-272.73 338.17,-268.06 342.68,-277.64 347.68,-272.73"/>
</g>
<!-- handwritten.Utility.map_with_in -->
<g id="node11" class="node">
<title>handwritten.Utility.map_with_in</title>
<g id="a_node11"><a xlink:href="https://SSProve.github.io/ssprove/handwritten.Utility.map_with_in.html" xlink:title="handwritten.Utility.map_with_in">
<path fill="#decbe4" stroke="black" d="M685.5,-344C685.5,-344 463.5,-344 463.5,-344 457.5,-344 451.5,-338 451.5,-332 451.5,-332 451.5,-320 451.5,-320 451.5,-314 457.5,-308 463.5,-308 463.5,-308 685.5,-308 685.5,-308 691.5,-308 697.5,-314 697.5,-320 697.5,-320 697.5,-332 697.5,-332 697.5,-338 691.5,-344 685.5,-344"/>
<text text-anchor="middle" x="574.5" y="-322.3" font-family="Times,serif" font-size="14.00">handwritten.Utility.map_with_in</text>
</a>
</g>
</g>
<!-- handwritten.Utility&#45;&gt;handwritten.Utility.map_with_in -->
<g id="edge7" class="edge">
<title>handwritten.Utility&#45;&gt;handwritten.Utility.map_with_in</title>
<path fill="none" stroke="black" d="M685.1,-383.84C664.75,-373.38 638.55,-359.91 616.76,-348.71"/>
<polygon fill="black" stroke="black" points="618.21,-345.53 607.72,-344.07 615.01,-351.75 618.21,-345.53"/>
</g>
<!-- handwritten.Utility.funext -->
<g id="node12" class="node">
<title>handwritten.Utility.funext</title>
<g id="a_node12"><a xlink:href="https://SSProve.github.io/ssprove/handwritten.Utility.funext.html" xlink:title="handwritten.Utility.funext">
<path fill="#decbe4" stroke="black" d="M1005.12,-323.51C1005.12,-323.51 1005.12,-328.49 1005.12,-328.49 1005.12,-330.97 1002.66,-333.77 1000.19,-334.08 1000.19,-334.08 926.51,-343.38 926.51,-343.38 924.04,-343.69 919.09,-344 916.61,-344 916.61,-344 808.39,-344 808.39,-344 805.91,-344 800.96,-343.69 798.49,-343.38 798.49,-343.38 724.81,-334.08 724.81,-334.08 722.34,-333.77 719.88,-330.97 719.88,-328.49 719.88,-328.49 719.88,-323.51 719.88,-323.51 719.88,-321.03 722.34,-318.23 724.81,-317.92 724.81,-317.92 798.49,-308.62 798.49,-308.62 800.96,-308.31 805.91,-308 808.39,-308 808.39,-308 916.61,-308 916.61,-308 919.09,-308 924.04,-308.31 926.51,-308.62 926.51,-308.62 1000.19,-317.92 1000.19,-317.92 1002.66,-318.23 1005.12,-321.03 1005.12,-323.51"/>
<path fill="none" stroke="black" d="M1009.12,-322.34C1009.12,-322.34 1009.12,-329.66 1009.12,-329.66 1009.12,-333.32 1005.49,-337.44 1001.85,-337.9 1001.85,-337.9 929.09,-347.08 929.09,-347.08 925.46,-347.54 918.17,-348 914.51,-348 914.51,-348 810.49,-348 810.49,-348 806.83,-348 799.54,-347.54 795.91,-347.08 795.91,-347.08 723.15,-337.9 723.15,-337.9 719.51,-337.44 715.88,-333.32 715.88,-329.66 715.88,-329.66 715.88,-322.34 715.88,-322.34 715.88,-318.68 719.51,-314.56 723.15,-314.1 723.15,-314.1 795.91,-304.92 795.91,-304.92 799.54,-304.46 806.83,-304 810.49,-304 810.49,-304 914.51,-304 914.51,-304 918.17,-304 925.46,-304.46 929.09,-304.92 929.09,-304.92 1001.85,-314.1 1001.85,-314.1 1005.49,-314.56 1009.12,-318.68 1009.12,-322.34"/>
<text text-anchor="middle" x="862.5" y="-322.3" font-family="Times,serif" font-size="14.00">handwritten.Utility.funext</text>
</a>
</g>
</g>
<!-- handwritten.Utility&#45;&gt;handwritten.Utility.funext -->
<g id="edge8" class="edge">
<title>handwritten.Utility&#45;&gt;handwritten.Utility.funext</title>
<path fill="none" stroke="black" d="M751.9,-383.84C769.91,-374.58 792.5,-362.97 812.56,-352.66"/>
<polygon fill="black" stroke="black" points="814.28,-355.72 821.57,-348.03 811.08,-349.49 814.28,-355.72"/>
</g>
<!-- handwritten.Utility.advantage -->
<g id="node13" class="node">
<title>handwritten.Utility.advantage</title>
<g id="a_node13"><a xlink:href="https://SSProve.github.io/ssprove/handwritten.Utility.advantage.html" xlink:title="handwritten.Utility.advantage">
<path fill="#decbe4" stroke="black" d="M1356.01,-323.51C1356.01,-323.51 1356.01,-328.49 1356.01,-328.49 1356.01,-330.97 1353.54,-333.73 1351.07,-334 1351.07,-334 1265.76,-343.45 1265.76,-343.45 1263.29,-343.73 1258.33,-344 1255.84,-344 1255.84,-344 1131.16,-344 1131.16,-344 1128.67,-344 1123.71,-343.73 1121.24,-343.45 1121.24,-343.45 1035.93,-334 1035.93,-334 1033.46,-333.73 1030.99,-330.97 1030.99,-328.49 1030.99,-328.49 1030.99,-323.51 1030.99,-323.51 1030.99,-321.03 1033.46,-318.27 1035.93,-318 1035.93,-318 1121.24,-308.55 1121.24,-308.55 1123.71,-308.27 1128.67,-308 1131.16,-308 1131.16,-308 1255.84,-308 1255.84,-308 1258.33,-308 1263.29,-308.27 1265.76,-308.55 1265.76,-308.55 1351.07,-318 1351.07,-318 1353.54,-318.27 1356.01,-321.03 1356.01,-323.51"/>
<path fill="none" stroke="black" d="M1360.01,-322.32C1360.01,-322.32 1360.01,-329.68 1360.01,-329.68 1360.01,-333.36 1356.36,-337.44 1352.7,-337.85 1352.7,-337.85 1268.35,-347.19 1268.35,-347.19 1264.69,-347.59 1257.36,-348 1253.68,-348 1253.68,-348 1133.32,-348 1133.32,-348 1129.64,-348 1122.31,-347.59 1118.65,-347.19 1118.65,-347.19 1034.3,-337.85 1034.3,-337.85 1030.64,-337.44 1026.99,-333.36 1026.99,-329.68 1026.99,-329.68 1026.99,-322.32 1026.99,-322.32 1026.99,-318.64 1030.64,-314.56 1034.3,-314.15 1034.3,-314.15 1118.65,-304.81 1118.65,-304.81 1122.31,-304.41 1129.64,-304 1133.32,-304 1133.32,-304 1253.68,-304 1253.68,-304 1257.36,-304 1264.69,-304.41 1268.35,-304.81 1268.35,-304.81 1352.7,-314.15 1352.7,-314.15 1356.36,-314.56 1360.01,-318.64 1360.01,-322.32"/>
<text text-anchor="middle" x="1193.5" y="-322.3" font-family="Times,serif" font-size="14.00">handwritten.Utility.advantage</text>
</a>
</g>
</g>
<!-- handwritten.Utility&#45;&gt;handwritten.Utility.advantage -->
<g id="edge9" class="edge">
<title>handwritten.Utility&#45;&gt;handwritten.Utility.advantage</title>
<path fill="none" stroke="black" d="M796.14,-388.9C872.25,-377.05 989.24,-358.82 1076.6,-345.21"/>
<polygon fill="black" stroke="black" points="1077.22,-348.66 1086.57,-343.66 1076.15,-341.74 1077.22,-348.66"/>
</g>
<!-- handwritten.Utility.key_store&#45;&gt;handwritten.ssp_helper -->
<g id="edge10" class="edge">
<title>handwritten.Utility.key_store&#45;&gt;handwritten.ssp_helper</title>
<path fill="none" stroke="black" d="M380.63,-231.93C415.59,-221.66 460.48,-208.48 498.27,-197.39"/>
<polygon fill="black" stroke="black" points="499.6,-200.64 508.21,-194.47 497.63,-193.93 499.6,-200.64"/>
</g>
<!-- handwritten.Utility.key_store&#45;&gt;handwritten.ExtraTypes -->
<g id="edge11" class="edge">
<title>handwritten.Utility.key_store&#45;&gt;handwritten.ExtraTypes</title>
<path fill="none" stroke="black" d="M336.96,-231.99C356.32,-210.27 392.75,-173.01 431.5,-152 458.66,-137.27 490.23,-126.39 519.91,-118.46"/>
<polygon fill="black" stroke="black" points="521.08,-121.77 529.89,-115.88 519.33,-114.99 521.08,-121.77"/>
</g>
<!-- handwritten.Utility.random_util -->
<g id="node14" class="node">
<title>handwritten.Utility.random_util</title>
<g id="a_node14"><a xlink:href="https://SSProve.github.io/ssprove/handwritten.Utility.random_util.html" xlink:title="handwritten.Utility.random_util">
<path fill="#decbe4" stroke="black" d="M683.5,-268C683.5,-268 465.5,-268 465.5,-268 459.5,-268 453.5,-262 453.5,-256 453.5,-256 453.5,-244 453.5,-244 453.5,-238 459.5,-232 465.5,-232 465.5,-232 683.5,-232 683.5,-232 689.5,-232 695.5,-238 695.5,-244 695.5,-244 695.5,-256 695.5,-256 695.5,-262 689.5,-268 683.5,-268"/>
<text text-anchor="middle" x="574.5" y="-246.3" font-family="Times,serif" font-size="14.00">handwritten.Utility.random_util</text>
</a>
</g>
</g>
<!-- handwritten.Utility.map_with_in&#45;&gt;handwritten.Utility.random_util -->
<g id="edge12" class="edge">
<title>handwritten.Utility.map_with_in&#45;&gt;handwritten.Utility.random_util</title>
<path fill="none" stroke="black" d="M574.5,-307.84C574.5,-299.06 574.5,-288.16 574.5,-278.27"/>
<polygon fill="black" stroke="black" points="578,-278.07 574.5,-268.07 571,-278.07 578,-278.07"/>
</g>
<!-- handwritten.Utility.interface_foreach_and_hierarchy -->
<g id="node15" class="node">
<title>handwritten.Utility.interface_foreach_and_hierarchy</title>
<g id="a_node15"><a xlink:href="https://SSProve.github.io/ssprove/handwritten.Utility.interface_foreach_and_hierarchy.html" xlink:title="handwritten.Utility.interface_foreach_and_hierarchy">
<path fill="#decbe4" stroke="black" d="M1091,-268C1091,-268 726,-268 726,-268 720,-268 714,-262 714,-256 714,-256 714,-244 714,-244 714,-238 720,-232 726,-232 726,-232 1091,-232 1091,-232 1097,-232 1103,-238 1103,-244 1103,-244 1103,-256 1103,-256 1103,-262 1097,-268 1091,-268"/>
<text text-anchor="middle" x="908.5" y="-246.3" font-family="Times,serif" font-size="14.00">handwritten.Utility.interface_foreach_and_hierarchy</text>
</a>
</g>
</g>
<!-- handwritten.Utility.map_with_in&#45;&gt;handwritten.Utility.interface_foreach_and_hierarchy -->
<g id="edge13" class="edge">
<title>handwritten.Utility.map_with_in&#45;&gt;handwritten.Utility.interface_foreach_and_hierarchy</title>
<path fill="none" stroke="black" d="M651.55,-307.93C702.31,-296.68 768.89,-281.93 821.55,-270.26"/>
<polygon fill="black" stroke="black" points="822.55,-273.63 831.55,-268.05 821.03,-266.79 822.55,-273.63"/>
</g>
<!-- handwritten.Utility.random_util&#45;&gt;handwritten.ssp_helper -->
<g id="edge14" class="edge">
<title>handwritten.Utility.random_util&#45;&gt;handwritten.ssp_helper</title>
<path fill="none" stroke="black" d="M574.5,-231.84C574.5,-224.16 574.5,-214.88 574.5,-206.05"/>
<polygon fill="black" stroke="black" points="578,-206.03 574.5,-196.03 571,-206.03 578,-206.03"/>
</g>
<!-- handwritten.Utility.interface_foreach_and_hierarchy&#45;&gt;handwritten.ssp_helper -->
<g id="edge15" class="edge">
<title>handwritten.Utility.interface_foreach_and_hierarchy&#45;&gt;handwritten.ssp_helper</title>
<path fill="none" stroke="black" d="M831.45,-231.93C781.41,-220.84 716.01,-206.35 663.71,-194.76"/>
<polygon fill="black" stroke="black" points="664.29,-191.31 653.77,-192.56 662.77,-198.14 664.29,-191.31"/>
</g>
<!-- handwritten.Utility.serialize_name -->
<g id="node16" class="node">
<title>handwritten.Utility.serialize_name</title>
<g id="a_node16"><a xlink:href="https://SSProve.github.io/ssprove/handwritten.Utility.serialize_name.html" xlink:title="handwritten.Utility.serialize_name">
<path fill="#decbe4" stroke="black" d="M1003,-192C1003,-192 764,-192 764,-192 758,-192 752,-186 752,-180 752,-180 752,-168 752,-168 752,-162 758,-156 764,-156 764,-156 1003,-156 1003,-156 1009,-156 1015,-162 1015,-168 1015,-168 1015,-180 1015,-180 1015,-186 1009,-192 1003,-192"/>
<text text-anchor="middle" x="883.5" y="-170.3" font-family="Times,serif" font-size="14.00">handwritten.Utility.serialize_name</text>
</a>
</g>
</g>
<!-- handwritten.Utility.interface_foreach_and_hierarchy&#45;&gt;handwritten.Utility.serialize_name -->
<g id="edge16" class="edge">
<title>handwritten.Utility.interface_foreach_and_hierarchy&#45;&gt;handwritten.Utility.serialize_name</title>
<path fill="none" stroke="black" d="M902.7,-231.84C899.67,-222.87 895.9,-211.7 892.5,-201.64"/>
<polygon fill="black" stroke="black" points="895.78,-200.42 889.27,-192.07 889.15,-202.66 895.78,-200.42"/>
</g>
<!-- handwritten.Utility.serialize_name&#45;&gt;handwritten.ExtraTypes -->
<g id="edge17" class="edge">
<title>handwritten.Utility.serialize_name&#45;&gt;handwritten.ExtraTypes</title>
<path fill="none" stroke="black" d="M823.99,-155.93C785.49,-144.89 735.23,-130.47 694.92,-118.91"/>
<polygon fill="black" stroke="black" points="695.74,-115.5 685.16,-116.11 693.81,-122.23 695.74,-115.5"/>
</g>
<!-- handwritten.Dependencies -->
<g id="node17" class="node">
<title>handwritten.Dependencies</title>
<g id="a_node17"><a xlink:href="https://SSProve.github.io/ssprove/handwritten.Dependencies.html" xlink:title="handwritten.Dependencies">
<path fill="#b3cde3" stroke="black" d="M811,-492C811,-492 626,-492 626,-492 620,-492 614,-486 614,-480 614,-480 614,-468 614,-468 614,-462 620,-456 626,-456 626,-456 811,-456 811,-456 817,-456 823,-462 823,-468 823,-468 823,-480 823,-480 823,-486 817,-492 811,-492"/>
<text text-anchor="middle" x="718.5" y="-470.3" font-family="Times,serif" font-size="14.00">handwritten.Dependencies</text>
</a>
</g>
</g>
<!-- handwritten.Dependencies&#45;&gt;handwritten.Utility -->
<g id="edge18" class="edge">
<title>handwritten.Dependencies&#45;&gt;handwritten.Utility</title>
<path fill="none" stroke="black" d="M718.5,-455.7C718.5,-447.98 718.5,-438.71 718.5,-430.11"/>
<polygon fill="black" stroke="black" points="722,-430.1 718.5,-420.1 715,-430.1 722,-430.1"/>
</g>
<!-- handwritten.BasePackages -->
<g id="node18" class="node">
<title>handwritten.BasePackages</title>
<g id="a_node18"><a xlink:href="https://SSProve.github.io/ssprove/handwritten.BasePackages.html" xlink:title="handwritten.BasePackages">
<path fill="#b3cde3" stroke="black" d="M811,-568C811,-568 626,-568 626,-568 620,-568 614,-562 614,-556 614,-556 614,-544 614,-544 614,-538 620,-532 626,-532 626,-532 811,-532 811,-532 817,-532 823,-538 823,-544 823,-544 823,-556 823,-556 823,-562 817,-568 811,-568"/>
<text text-anchor="middle" x="718.5" y="-546.3" font-family="Times,serif" font-size="14.00">handwritten.BasePackages</text>
</a>
</g>
</g>
<!-- handwritten.BasePackages&#45;&gt;handwritten.Dependencies -->
<g id="edge19" class="edge">
<title>handwritten.BasePackages&#45;&gt;handwritten.Dependencies</title>
<path fill="none" stroke="black" d="M718.5,-531.84C718.5,-523.06 718.5,-512.16 718.5,-502.27"/>
<polygon fill="black" stroke="black" points="722,-502.07 718.5,-492.07 715,-502.07 722,-502.07"/>
</g>
<!-- handwritten.KeyPackages -->
<g id="node19" class="node">
<title>handwritten.KeyPackages</title>
<g id="a_node19"><a xlink:href="https://SSProve.github.io/ssprove/handwritten.KeyPackages.html" xlink:title="handwritten.KeyPackages">
<path fill="#b3cde3" stroke="black" d="M704,-644C704,-644 527,-644 527,-644 521,-644 515,-638 515,-632 515,-632 515,-620 515,-620 515,-614 521,-608 527,-608 527,-608 704,-608 704,-608 710,-608 716,-614 716,-620 716,-620 716,-632 716,-632 716,-638 710,-644 704,-644"/>
<text text-anchor="middle" x="615.5" y="-622.3" font-family="Times,serif" font-size="14.00">handwritten.KeyPackages</text>
</a>
</g>
</g>
<!-- handwritten.KeyPackages&#45;&gt;handwritten.BasePackages -->
<g id="edge20" class="edge">
<title>handwritten.KeyPackages&#45;&gt;handwritten.BasePackages</title>
<path fill="none" stroke="black" d="M639.39,-607.84C653.43,-597.75 671.36,-584.87 686.59,-573.92"/>
<polygon fill="black" stroke="black" points="688.66,-576.75 694.74,-568.07 684.58,-571.06 688.66,-576.75"/>
</g>
<!-- handwritten.XTR_XPD -->
<g id="node20" class="node">
<title>handwritten.XTR_XPD</title>
<g id="a_node20"><a xlink:href="https://SSProve.github.io/ssprove/handwritten.XTR_XPD.html" xlink:title="handwritten.XTR_XPD">
<path fill="#b3cde3" stroke="black" d="M898.5,-644C898.5,-644 746.5,-644 746.5,-644 740.5,-644 734.5,-638 734.5,-632 734.5,-632 734.5,-620 734.5,-620 734.5,-614 740.5,-608 746.5,-608 746.5,-608 898.5,-608 898.5,-608 904.5,-608 910.5,-614 910.5,-620 910.5,-620 910.5,-632 910.5,-632 910.5,-638 904.5,-644 898.5,-644"/>
<text text-anchor="middle" x="822.5" y="-622.3" font-family="Times,serif" font-size="14.00">handwritten.XTR_XPD</text>
</a>
</g>
</g>
<!-- handwritten.XTR_XPD&#45;&gt;handwritten.BasePackages -->
<g id="edge21" class="edge">
<title>handwritten.XTR_XPD&#45;&gt;handwritten.BasePackages</title>
<path fill="none" stroke="black" d="M798.38,-607.84C784.2,-597.75 766.1,-584.87 750.72,-573.92"/>
<polygon fill="black" stroke="black" points="752.67,-571.02 742.49,-568.07 748.61,-576.72 752.67,-571.02"/>
</g>
<!-- handwritten.Core -->
<g id="node21" class="node">
<title>handwritten.Core</title>
<g id="a_node21"><a xlink:href="https://SSProve.github.io/ssprove/handwritten.Core.html" xlink:title="handwritten.Core">
<path fill="#b3cde3" stroke="black" d="M779,-720C779,-720 660,-720 660,-720 654,-720 648,-714 648,-708 648,-708 648,-696 648,-696 648,-690 654,-684 660,-684 660,-684 779,-684 779,-684 785,-684 791,-690 791,-696 791,-696 791,-708 791,-708 791,-714 785,-720 779,-720"/>
<text text-anchor="middle" x="719.5" y="-698.3" font-family="Times,serif" font-size="14.00">handwritten.Core</text>
</a>
</g>
</g>
<!-- handwritten.Core&#45;&gt;handwritten.KeyPackages -->
<g id="edge22" class="edge">
<title>handwritten.Core&#45;&gt;handwritten.KeyPackages</title>
<path fill="none" stroke="black" d="M695.38,-683.84C681.2,-673.75 663.1,-660.87 647.72,-649.92"/>
<polygon fill="black" stroke="black" points="649.67,-647.02 639.49,-644.07 645.61,-652.72 649.67,-647.02"/>
</g>
<!-- handwritten.Core&#45;&gt;handwritten.XTR_XPD -->
<g id="edge23" class="edge">
<title>handwritten.Core&#45;&gt;handwritten.XTR_XPD</title>
<path fill="none" stroke="black" d="M743.39,-683.84C757.43,-673.75 775.36,-660.87 790.59,-649.92"/>
<polygon fill="black" stroke="black" points="792.66,-652.75 798.74,-644.07 788.58,-647.06 792.66,-652.75"/>
</g>
<!-- handwritten.CoreTheorem -->
<g id="node22" class="node">
<title>handwritten.CoreTheorem</title>
<g id="a_node22"><a xlink:href="https://SSProve.github.io/ssprove/handwritten.CoreTheorem.html" xlink:title="handwritten.CoreTheorem">
<path fill="#b3cde3" stroke="black" d="M810.5,-796C810.5,-796 628.5,-796 628.5,-796 622.5,-796 616.5,-790 616.5,-784 616.5,-784 616.5,-772 616.5,-772 616.5,-766 622.5,-760 628.5,-760 628.5,-760 810.5,-760 810.5,-760 816.5,-760 822.5,-766 822.5,-772 822.5,-772 822.5,-784 822.5,-784 822.5,-790 816.5,-796 810.5,-796"/>
<text text-anchor="middle" x="719.5" y="-774.3" font-family="Times,serif" font-size="14.00">handwritten.CoreTheorem</text>
</a>
</g>
</g>
<!-- handwritten.CoreTheorem&#45;&gt;handwritten.Core -->
<g id="edge24" class="edge">
<title>handwritten.CoreTheorem&#45;&gt;handwritten.Core</title>
<path fill="none" stroke="black" d="M719.5,-759.84C719.5,-751.06 719.5,-740.16 719.5,-730.27"/>
<polygon fill="black" stroke="black" points="723,-730.07 719.5,-720.07 716,-730.07 723,-730.07"/>
</g>
<!-- handwritten.BertieResult -->
<g id="node23" class="node">
<title>handwritten.BertieResult</title>
<g id="a_node23"><a xlink:href="https://SSProve.github.io/ssprove/handwritten.BertieResult.html" xlink:title="handwritten.BertieResult">
<path fill="#b3cde3" stroke="black" stroke-width="3" d="M650,-868C650,-868 475,-868 475,-868 469,-868 463,-862 463,-856 463,-856 463,-844 463,-844 463,-838 469,-832 475,-832 475,-832 650,-832 650,-832 656,-832 662,-838 662,-844 662,-844 662,-856 662,-856 662,-862 656,-868 650,-868"/>
<text text-anchor="middle" x="562.5" y="-846.3" font-family="Times,serif" font-size="14.00">handwritten.BertieResult</text>
</a>
</g>
</g>
<!-- handwritten.BertieResult&#45;&gt;fextraction.Bertie_Tls13keyscheduler_Key_schedule -->
<g id="edge25" class="edge">
<title>handwritten.BertieResult&#45;&gt;fextraction.Bertie_Tls13keyscheduler_Key_schedule</title>
<path fill="none" stroke="black" d="M524.09,-831.88C502.63,-822.31 475.7,-810.3 452.93,-800.15"/>
<polygon fill="black" stroke="black" points="454.34,-796.94 443.78,-796.07 451.49,-803.34 454.34,-796.94"/>
</g>
<!-- handwritten.BertieResult&#45;&gt;handwritten.CoreTheorem -->
<g id="edge26" class="edge">
<title>handwritten.BertieResult&#45;&gt;handwritten.CoreTheorem</title>
<path fill="none" stroke="black" d="M600.91,-831.88C622.37,-822.31 649.3,-810.3 672.07,-800.15"/>
<polygon fill="black" stroke="black" points="673.51,-803.34 681.22,-796.07 670.66,-796.94 673.51,-803.34"/>
</g>
</g>
</svg>
